<svg height="1052.362205" width="744.094488" xmlns="http://www.w3.org/2000/svg"><g fill="#ab4851"><path d="m356.61494 508.76533c.10376 7.46916-4.69705 14.67252-11.60099 17.50184-6.85334 2.98777-15.38014 1.38749-20.66258-3.91053-5.36204-5.09966-7.19364-13.45647-4.49168-20.33981 2.59649-7.06946 9.73137-12.15181 17.27048-12.23979 7.39501-.29105 14.65801 4.22906 17.71051 10.96168 1.17175 2.50241 1.77766 5.26407 1.77426 8.02661z" fill-rule="evenodd"/><path d="m314.57535 540.05157h45.804367v87.70504h-45.804367z"/><path d="m314.57535 623.44427h19.822224v115.98931h-19.822224z"/><path d="m340.51285 623.7301h19.822224v115.69611h-19.822224z"/><path d="m340.53228 739.14604h19.79081c-.40747 5.2004-3.87342 8.23381-9.46927 8.98926-6.33213-.69414-9.80338-3.6661-10.32154-8.98926z"/><path d="m337.88962 531.07442c-19.85417 2.0575-37.39961 10.52815-48.07692 38.07692v69.23077c7.17384 8.93484 12.5391 5.20961 17.6923 0v-66.92308h6.92308c27.40875-21.91136 47.70428-40.75428 23.46154-40.38461z"/><path d="m337.41573 530.8805c19.85418 2.0575 37.39961 10.52815 48.07693 38.07692v69.23077c-7.17384 8.93484-12.5391 5.20961-17.69231 0v-66.92308h-6.92308c-27.40876-21.91136-47.70428-40.75428-23.46154-40.38461z"/><path d="m432.25486 531.96965c-48.11557-.57649-55.79533 50.51499-59.22096 107.0423 6.35234 6.67195 11.96337 5.93077 17.05544 0l13.0424-68.22177h5.0163l-15.71776 91.29678h15.04892v80.92974c8.60583 9.56491 15.30308 6.72407 21.40291 0v-80.84614h2.75897z"/><path d="m430.57372 532.07935c48.11557-.57649 55.79533 50.51499 59.22096 107.0423-6.35234 6.67195-11.96337 5.93077-17.05544 0l-13.0424-68.22177h-5.0163l15.71776 91.29678h-15.04892v80.92974c-8.60583 9.56491-15.30308 6.72407-21.40291 0v-80.84614h-2.75897z"/><path d="m451.94707 509.56411c.10376 7.46916-4.69705 14.67252-11.60099 17.50184-6.85334 2.98777-15.38014 1.38749-20.66258-3.91053-5.36204-5.09966-7.19364-13.45647-4.49168-20.33981 2.59649-7.06946 9.73137-12.15181 17.27048-12.23979 7.39501-.29105 14.65801 4.22906 17.71051 10.96168 1.17175 2.50241 1.77766 5.26407 1.77426 8.02661z" fill-rule="evenodd"/><path d="m519.65326 470.41489h4.174817v76.73719h-4.174817z" transform="matrix(1 0 -.31422111 .94934983 0 0)"/><path d="m626.0415 470.68076h4.583645v79.996521h-4.583645z" transform="matrix(1 0 -.33093582 .94365326 0 0)"/><path d="m371.67814 447.00474 13.12415-35.47064c32.87869-.0415 71.94766-27.93932 98.60838 0-3.23994 12.26688-4.24242 25.95459-10.40472 36.77124-11.59491-24.73212-68.2205 1.51099-101.32781-1.3006z"/><path d="m314.49241 739.1975h19.79081c-.40747 5.2004-3.87342 8.23381-9.46927 8.98926-6.33213-.69414-9.80338-3.6661-10.32154-8.98926z"/></g></svg>